<?xml version="1.0" encoding="UTF-8"?>
<svg id="Layer_2" xmlns="http://www.w3.org/2000/svg" xmlns:xlink="http://www.w3.org/1999/xlink" viewBox="0 0 329.26 329.26" width="400" height="400">
  <defs>
    <style>
      .cls-1 {
        fill: url(#linear-gradient-2);
      }
      .cls-2 {
        fill: url(#radial-gradient);
      }
      .cls-3 {
        fill: url(#linear-gradient);
      }
    </style>
    <linearGradient id="linear-gradient" x1="84.63" y1="82.35" x2="314.15" y2="318.42" gradientUnits="userSpaceOnUse">
      <stop offset="0" stop-color="#1d2227"/>
      <stop offset=".39" stop-color="#20262c"/>
      <stop offset=".87" stop-color="#2c333b"/>
      <stop offset="1" stop-color="#303841"/>
    </linearGradient>
    <radialGradient id="radial-gradient" cx="163.54" cy="145.68" fx="163.54" fy="285.91" r="140.23" gradientUnits="userSpaceOnUse">
      <stop offset="0" stop-color="#fef6d3"/>
      <stop offset=".12" stop-color="#fdf4cd"/>
      <stop offset=".28" stop-color="#fdf1be"/>
      <stop offset=".45" stop-color="#fceca4"/>
      <stop offset=".64" stop-color="#fce581"/>
      <stop offset=".83" stop-color="#fbdc53"/>
      <stop offset="1" stop-color="#fad325"/>
    </radialGradient>
    <linearGradient id="linear-gradient-2" x1="101.86" y1="136.92" x2="252.79" y2="282.4" xlink:href="#linear-gradient"/>
  </defs>
  <g id="Layer_1-2" data-name="Layer_1">
    <g>
      <path class="cls-3" d="M164.63,329.26c-22.22,0-43.78-4.35-64.08-12.94-9.76-4.13-19.17-9.23-27.97-15.18-8.72-5.89-16.91-12.65-24.36-20.1-7.45-7.45-14.21-15.64-20.1-24.36-5.95-8.8-11.05-18.21-15.18-27.97C4.35,208.41,0,186.85,0,164.63s4.35-43.78,12.94-64.08c4.13-9.76,9.23-19.17,15.18-27.97,5.89-8.72,12.65-16.91,20.1-24.36,7.45-7.45,15.64-14.21,24.36-20.1,8.8-5.95,18.21-11.05,27.97-15.18C120.85,4.35,142.41,0,164.63,0s43.78,4.35,64.08,12.94c9.76,4.13,19.17,9.23,27.97,15.18,8.72,5.89,16.91,12.65,24.36,20.1,7.45,7.45,14.21,15.64,20.1,24.36,5.95,8.8,11.05,18.21,15.18,27.97,8.59,20.3,12.94,41.86,12.94,64.08s-4.35,43.78-12.94,64.08c-4.13,9.76-9.23,19.17-15.18,27.97-5.89,8.72-12.65,16.91-20.1,24.36-7.45,7.45-15.64,14.21-24.36,20.1-8.8,5.95-18.21,11.05-27.97,15.18-20.3,8.59-41.86,12.94-64.08,12.94ZM164.63,14.03C81.59,14.03,14.03,81.59,14.03,164.63s67.56,150.6,150.6,150.6,150.6-67.56,150.6-150.6S247.67,14.03,164.63,14.03Z"/>
      <path class="cls-2" d="M304.86,164.63c0,33.24-11.57,63.79-30.9,87.82-1.46,1.82-2.97,3.6-4.52,5.34-25.69,28.88-63.12,47.07-104.81,47.07s-79.13-18.19-104.81-47.07c-1.55-1.74-3.06-3.52-4.52-5.34-19.33-24.03-30.9-54.58-30.9-87.82,0-77.45,62.78-140.23,140.23-140.23s140.23,62.78,140.23,140.23Z"/>
      <path class="cls-1" d="M269.44,257.79c-25.69,28.88-63.12,47.07-104.81,47.07s-79.13-18.19-104.81-47.07c.68-3.45,1.84-6.78,3.84-10.02,4.49-7.27,10.91-7.53,18.36-9.7.34-.13.69-.23,1.04-.31.59-.09,1.17-.21,1.76-.33.86-.36,1.75-.55,2.67-.67,1.09-.31,2.18-.65,3.25-1.04,2.21-.59,4.76-1.58,7.45-2.74,9.02-3.52,17.85-7.61,22.74-9.94,1.35-.54,2.67-1.17,3.92-1.91,9.29-5.5,13.12-16.02,13.21-26.39.02-1.9.18-4.34-.39-6.17-.47-1.52-2.3-2.9-3.33-4.17-1.14-1.41-2.04-3.18-3.26-4.49,0,0-.01,0-.02-.02-3.59-3.94-5.38-11.94-6.09-16.02-.13-.76-.56-1.6-1.27-1.95-.27-.14-.58-.21-.86-.33-.29-.12-.57-.29-.84-.46-2.22-1.38-4.13-2.79-5.18-5.25l-.15-.35c-.43-1.07-.78-2.18-1.2-3.26-.26-.45-.5-.91-.75-1.39-2.63-6.27-5.92-12.31-4.83-19.34.14-.88.4-1.72,1.15-2.26.17-.12,1.69-.61,1.72-.61v-5.64c.12-.67.43-1.33,0-2-.4-6.54,1.19-12.92,1.59-19.4.04-.64.55-1.25.84-1.87.35-1.48.71-2.97,1.06-4.45.48-.68.95-1.36,1.43-2.04,2.28-7.33,6.46-13.64,10.7-19.92,1.18-1.43,2.36-2.85,3.53-4.28.96-.41,1.57-1.48,2.76-1.44,2-1.98,4.3-3.48,6.69-4.82.94-.53,1.89-1.03,2.84-1.53,8.8-4.61,20.06-5.88,29.85-4.54,3.18.43,6.54,1.61,9.82,3.24,0,0,19.23,4.68,22.97,22.81,1.89,3.32,3.54,6.77,4.69,10.49.48.68.95,1.36,1.43,2.04.35,1.48.71,2.97,1.06,4.45.29.62.8,1.23.84,1.87.4,6.48,1.99,12.86,1.59,19.4-.43.67-.12,1.34,0,2v5.64s1.55.49,1.72.61c.75.54,1.01,1.38,1.15,2.26,1.09,7.03-2.2,13.07-4.83,19.34-.25.48-.5.95-.75,1.39-.42,1.07-.77,2.19-1.2,3.26l-.15.35c-1.05,2.46-2.96,3.87-5.18,5.25-.27.17-.54.34-.84.46-.29.12-.59.19-.87.33-.71.36-1.13,1.19-1.27,1.95-.71,4.08-2.5,12.08-6.09,16.02,0,0-.01.01-.02.02-1.22,1.31-2.12,3.08-3.26,4.49-1.03,1.27-2.86,2.65-3.33,4.17-.57,1.84-.4,4.27-.39,6.17.09,10.37,3.92,20.89,13.21,26.39,1.26.74,2.57,1.37,3.92,1.91,4.89,2.34,13.71,6.42,22.74,9.94,2.69,1.16,5.24,2.15,7.45,2.74,1.07.38,2.16.73,3.25,1.04.92.12,1.82.31,2.67.67.58.12,1.17.24,1.76.33.35.08.7.17,1.04.31,7.46,2.17,13.88,2.43,18.36,9.7,2,3.24,3.15,6.57,3.84,10.01Z"/>
    </g>
  </g>
</svg>