<?xml version="1.0" encoding="UTF-8"?>
<svg id="Layer_2" xmlns="http://www.w3.org/2000/svg" viewBox="0 0 195.9 95.64">
  <defs>
    <style>
      .cls-1 {
        fill: #ff6ec7;
        stroke: #ff6ec7;
        stroke-miterlimit: 10;
      }

      .cls-2 {
        fill: gold;
      }

      .cls-3 {
        fill: #0f0f0f;
      }
    </style>
  </defs>
  <g id="Layer_1-2" data-name="Layer_1">
    <g>
      <path class="cls-2" d="M160.15,22.55c-12.03,3.82-16.81.19-16.81.19l18.34,32.09,19.1-32.47s-8.6-3.63-20.63.19ZM162.06,31.2c-1.18,0-2.13-.96-2.13-2.13s.96-2.13,2.13-2.13,2.13.96,2.13,2.13-.96,2.13-2.13,2.13ZM165.68,35.96c-.82,0-1.49-.67-1.49-1.49s.67-1.49,1.49-1.49,1.49.67,1.49,1.49-.67,1.49-1.49,1.49ZM169.9,29.07c-1.69,0-3.06-1.37-3.06-3.06s1.37-3.06,3.06-3.06,3.06,1.37,3.06,3.06-1.37,3.06-3.06,3.06Z"/>
      <circle class="cls-1" cx="163.71" cy="11.94" r="3.06" transform="translate(.32 27.71) rotate(-9.68)"/>
      <circle class="cls-1" cx="170.56" cy="6.75" r="2.13" transform="translate(1.3 28.79) rotate(-9.68)"/>
      <circle class="cls-1" cx="166.43" cy="1.99" r="1.49" transform="translate(2.04 28.02) rotate(-9.68)"/>
      <path class="cls-3" d="M0,45.81h17.79c13.68,0,22.26,9.97,22.26,24.9s-8.43,24.94-22.36,24.94H0v-49.84ZM17.15,90.96c10.82,0,17.43-7.86,17.43-20.29s-6.43-20.18-17.43-20.18H5.36v40.48h11.79Z"/>
      <path class="cls-3" d="M42.67,45.81h20.47c8.68,0,14.97,6.04,14.97,14,0,5.68-3.11,10.43-8.29,12.43v-.71c5.5,1.61,7.65,5.57,7.65,10.61v8c0,2.11.5,3.86,1.5,5.5h-5.72c-.79-1.25-1.14-3.07-1.14-5.43v-8.11c0-4.57-2.93-7.9-9.11-7.9h-14.97v21.44h-5.36v-49.84ZM63,69.53c5.86,0,9.75-4.25,9.75-9.57s-4.04-9.47-9.75-9.47h-14.97v19.04h14.97Z"/>
      <path class="cls-3" d="M82.31,45.81h5.36v49.84h-5.36v-49.84Z"/>
      <path class="cls-3" d="M92.36,45.81h7.25l26.33,44.76h-.86v-44.76h5.14v49.84h-7.25l-26.29-44.69h.82v44.69h-5.14v-49.84Z"/>
      <path class="cls-3" d="M156.97,58.54L118.77.5h9.39l34.74,52.9h-2.26l25.82-40.29h9.45l-29.39,45.44,24.66,37.1h-9.55l-20.99-31.96h2.26l-20.99,31.96h-9.55l24.61-37.1Z"/>
    </g>
  </g>
</svg>