<?xml version="1.0" encoding="UTF-8"?>
<svg id="Layer_2" xmlns="http://www.w3.org/2000/svg" viewBox="0 0 316.54 410.77">
  <defs>
    <style>
      .cls-1 {
        fill: #dcb404;
      }
    </style>
  </defs>
  <g id="Layer_1-2" data-name="Layer_1">
    <g>
      <path class="cls-1" d="M272.55,51.37C243.21,17.14,199.07,0,140.13,0c-10.59,0-28.29.38-53.07,1.18l-18.14.57h-14.06C30.98,1.75,12.7,1.18,0,0v11.62c9.96.75,17.29,2.31,22,4.62,4.66,2.32,7.84,6.8,9.52,13.37,1.64,6.56,2.49,17.18,2.49,31.91v287.73c0,14.73-.85,25.35-2.49,31.92-1.68,6.61-4.86,11.04-9.52,13.36-4.71,2.31-12.04,3.87-22,4.62v11.62c15.41-1.18,38.7-1.75,69.83-1.75,7.86,0,20.55.38,38.1,1.18l28.1.57c37.5,0,69.77-8.69,96.83-26.11,27.05-17.42,47.77-41.88,62.13-73.37,14.35-31.54,21.55-68.37,21.55-110.53,0-65.39-14.67-115.16-43.99-149.39ZM212.72,272.67c-9.65,15.99-24.29,26.22-41.01,37.02-15.34,9.89-15.25,15.94-15.16,22.35,0,.52.02,1.04.02,1.56,0,9.18,2.24,12.55,4.32,12.64,12.57.54,24.4,1.72,33.3,3.31,12.89,2.31,14.54,4.51,14.54,6.18v7.09c0,1.15,0,4.22-17.83,7.02-11.58,1.82-26.62,2.82-42.34,2.82-15.7,0-30.63-1-42.06-2.82-17.54-2.8-17.54-5.86-17.54-7.02v-7.09c0-1.08,0-3.6,14.2-6.2,8.76-1.6,20.52-2.78,33.1-3.31.27,0,.53,0,.79.02.76.04,1.07.03,1.38-.26.82-.79,1.82-3.53,1.82-12.15v-1.37c.05-8.28.07-14.83-14-23.37-14.14-8.57-28.67-18.73-39.07-34.82-5.95-9.2-9.99-19.61-11.98-30.94-2.29-13.02-1.99-27.7.9-43.64,1.46-8.07,4.3-18.07,7.3-28.66,4.56-16.08,9.72-34.31,12.17-52.42,4.84-35.94-13.63-68.1-15.75-71.65-.07-.1-.21-.35-.21-.7,0-1.07.58-1.71,5.92-3,3.56-.85,8.43-1.75,13.74-2.53,8.26-1.21,25.32-3.23,46.67-3.23s38.79,2.02,47.27,3.23c5.45.78,10.47,1.68,14.14,2.53,5.19,1.2,6.11,1.82,6.11,2.99,0,.36-.15.64-.23.78-.79,1.43-19.53,36.46-13.69,73.01,2.57,16.08,7.2,30.47,11.67,44.4,3.95,12.29,7.68,23.89,9.83,35.97,5.4,30.42,2.68,54.05-8.31,72.24Z"/>
      <path class="cls-1" d="M133.18,108.19c.05-.38.21-.71.47-.98.26-.28.74-.66,1.42-1.13l8.25-5.56,4.96,4.05c.83.66,1.48,1.25,1.93,1.78.45.53.78,1.08.98,1.66h.76c-.08-.73-.11-1.61-.11-2.65,0-2.17.04-3.98.11-5.45h-.76c-.08.83-.33,1.49-.78,1.99-.44.49-1.01.74-1.72.74-.93,0-1.94-.42-3.03-1.25l-1.66-1.32,5.86-3.93c.2-.13.38-.19.53-.19.25,0,.44.12.57.36.13.24.19.55.19.93h.79c-.1-2.52-.15-4.16-.15-4.92,0-.68.05-2.03.15-4.05h-.79c-.08.4-.26.76-.57,1.06-.3.3-.74.66-1.32,1.06l-8.85,5.94-4.35-3.48c-1.59-1.26-2.56-2.42-2.91-3.48h-.76c.08.73.11,1.63.11,2.69,0,1.39-.04,2.81-.11,4.27h.76c.05-.76.23-1.33.55-1.72.32-.39.74-.59,1.27-.59.78,0,1.75.44,2.91,1.32l1.89,1.44-5.3,3.56c-.15.13-.33.19-.53.19-.25,0-.44-.12-.57-.36-.13-.24-.19-.55-.19-.93h-.79c.1,2.32.15,3.81.15,4.46,0,.78-.05,2.28-.15,4.5h.79Z"/>
      <path class="cls-1" d="M151.08,221.89c-.08,1.29-.25,2.21-.49,2.78-.25.57-.72.96-1.42,1.16-.7.21-1.83.31-3.4.31h-30.64c-1.56,0-2.7-.1-3.4-.31-.7-.21-1.17-.6-1.42-1.16-.25-.57-.41-1.49-.49-2.78h-1.24c.12,2.04.19,4.9.19,8.57,0,4.05-.06,7.04-.19,8.97h1.24c.08-1.25.25-2.17.49-2.75.25-.59.72-.98,1.42-1.19.7-.21,1.83-.31,3.4-.31h30.64c1.57,0,2.7.1,3.4.31.7.21,1.17.61,1.42,1.19.25.59.41,1.5.49,2.75h1.24c-.12-1.93-.19-4.92-.19-8.97,0-3.67.06-6.53.19-8.57h-1.24Z"/>
      <path class="cls-1" d="M127.37,136.09c.07-.5.27-.92.62-1.29.35-.36.97-.86,1.86-1.49l10.8-7.28,6.49,5.3c1.09.86,1.93,1.63,2.53,2.33.59.69,1.02,1.42,1.29,2.18h.99c-.1-.96-.15-2.11-.15-3.47,0-2.84.05-5.22.15-7.13h-.99c-.1,1.09-.44,1.96-1.02,2.6-.58.64-1.33.97-2.25.97-1.22,0-2.54-.54-3.96-1.63l-2.18-1.73,7.68-5.15c.26-.17.5-.25.69-.25.33,0,.58.16.74.47.17.31.25.72.25,1.21h1.04c-.13-3.3-.2-5.45-.2-6.44,0-.89.07-2.66.2-5.3h-1.04c-.1.53-.35.99-.74,1.39s-.97.86-1.73,1.39l-11.59,7.78-5.7-4.56c-2.08-1.65-3.35-3.17-3.82-4.56h-.99c.1.96.15,2.13.15,3.52,0,1.82-.05,3.68-.15,5.6h.99c.07-.99.31-1.74.72-2.25.41-.51.97-.77,1.66-.77,1.02,0,2.3.58,3.81,1.73l2.48,1.88-6.94,4.66c-.2.17-.43.25-.69.25-.33,0-.58-.16-.74-.47-.17-.31-.25-.72-.25-1.21h-1.04c.13,3.04.2,4.99.2,5.85,0,1.02-.07,2.99-.2,5.9h1.04Z"/>
      <path class="cls-1" d="M117.97,184.95c-2.1,0-3.68-.1-4.76-.31-1.07-.21-1.85-.6-2.35-1.19-.49-.59-.84-1.5-1.05-2.75h-1.24c.12,1.17.19,2.82.19,4.94,0,2.61-.06,4.65-.19,6.13h1.24c.21-1.7.57-2.93,1.08-3.69.52-.76,1.34-1.25,2.47-1.48,1.13-.23,2.91-.34,5.34-.34h19.33l-29.47,21.96c.12,1.36.19,2.99.19,4.88,0,2.08-.06,3.73-.19,4.94h1.24c.08-1.25.25-2.17.49-2.75.25-.59.72-.98,1.42-1.19.7-.21,1.83-.31,3.4-.31h27.8c2.1,0,3.69.11,4.76.31,1.07.21,1.85.61,2.35,1.19.49.59.84,1.5,1.05,2.75h1.24c-.12-1.21-.19-2.86-.19-4.94,0-2.61.06-4.65.19-6.13h-1.24c-.21,1.7-.57,2.93-1.08,3.69-.51.76-1.34,1.25-2.47,1.48-1.13.23-2.91.34-5.34.34h-23.72l33.97-24.63-.06-1.53.06-1.36h-34.47Z"/>
      <path class="cls-1" d="M139.63,86.46c.03-.24.13-.46.31-.64.17-.18.48-.42.92-.74l5.35-3.6,3.21,2.62c.54.43.96.81,1.25,1.15.29.34.51.7.64,1.08h.49c-.05-.47-.07-1.05-.07-1.72,0-1.41.02-2.58.07-3.53h-.49c-.05.54-.22.97-.5,1.29-.29.32-.66.48-1.12.48-.6,0-1.26-.27-1.96-.81l-1.08-.86,3.8-2.55c.13-.08.25-.12.34-.12.16,0,.29.08.37.23.08.16.12.36.12.6h.51c-.07-1.63-.1-2.7-.1-3.19,0-.44.03-1.32.1-2.62h-.51c-.05.26-.17.49-.37.69-.2.2-.48.43-.86.69l-5.74,3.85-2.82-2.26c-1.03-.82-1.66-1.57-1.89-2.26h-.49c.05.47.07,1.05.07,1.74,0,.9-.02,1.82-.07,2.77h.49c.03-.49.15-.86.36-1.12.2-.25.48-.38.82-.38.51,0,1.14.29,1.89.86l1.23.93-3.43,2.3c-.1.08-.21.12-.34.12-.16,0-.29-.08-.37-.23-.08-.16-.12-.36-.12-.6h-.52c.07,1.5.1,2.47.1,2.89,0,.51-.03,1.48-.1,2.92h.52Z"/>
      <path class="cls-1" d="M106.61,362.12c-5.59-.89-11.95-2.24-15.07-4.05v4.7c.38.7,3.99,2.82,16.48,4.71,11.15,1.69,25.54,2.62,40.54,2.62s29.5-.93,40.79-2.61c12.71-1.9,16.41-4.02,16.81-4.72v-4.72c-3.16,1.82-9.65,3.17-15.36,4.07-11.54,1.82-26.54,2.82-42.24,2.82s-30.57-1-41.96-2.82Z"/>
      <path class="cls-1" d="M149.17,274.75c.7.21,1.17.61,1.42,1.19.25.59.41,1.5.49,2.75h1.24c-.12-1.93-.19-4.92-.19-8.97,0-3.67.06-6.53.19-8.57h-1.24c-.08,1.29-.25,2.21-.49,2.78-.25.57-.72.96-1.42,1.16-.7.21-1.83.31-3.4.31h-14.21v-3.69c0-1.63.71-2.79,2.13-3.49,1.42-.7,3.63-1.3,6.64-1.79l6.18-1.02c2.43-.38,4.15-1.2,5.16-2.47,1.01-1.27,1.51-3,1.51-5.19,0-1.66-.28-3.08-.83-4.26-.56-1.17-1.47-2.27-2.75-3.29l-.74.79c.49.42.84.79,1.05,1.11.21.32.33.71.37,1.16,0,.72-.33,1.28-.99,1.67-.66.4-1.81.75-3.46,1.05l-6.36,1.31c-2.55.49-4.47,1.57-5.74,3.23-1.28,1.67-2.08,4.2-2.41,7.6-.58-4.54-1.98-7.79-4.2-9.76-2.22-1.97-4.8-2.95-7.72-2.95-3.46,0-6.12,1.32-7.97,3.94-1.85,2.63-2.78,6.55-2.78,11.78,0,.98.02,1.85.06,2.61l.06,6.3c0,3.82-.06,6.7-.19,8.63h1.24c.08-1.25.25-2.17.49-2.75.25-.59.72-.98,1.42-1.19.7-.21,1.83-.31,3.4-.31h30.64c1.57,0,2.7.1,3.4.31ZM130.33,265.41h-15.2c-1.48,0-2.59-.09-3.34-.28-.74-.19-1.26-.52-1.54-.99-.29-.47-.43-1.22-.43-2.24,0-2.5.86-4.29,2.59-5.39,1.73-1.1,4.28-1.65,7.66-1.65s5.78.58,7.57,1.73c1.79,1.15,2.69,3.28,2.69,6.38v2.44Z"/>
      <path class="cls-1" d="M108.52,178.88h1.3c.04-.76.26-1.36.65-1.82.39-.45,1.2-1.06,2.44-1.82l19.58-12.26,11.06,7.55c4.12,2.88,6.63,5.62,7.54,8.23h1.24c-.12-1.21-.19-2.95-.19-5.22,0-3.82.06-6.81.19-8.97h-1.24c-.08,1.51-.48,2.7-1.2,3.55-.72.85-1.72,1.28-3,1.28-1.77,0-3.93-.87-6.49-2.61l-6.73-4.54,15.26-9.53c.41-.26.76-.4,1.05-.4.41,0,.69.28.83.85.14.57.22,1.53.22,2.89h1.3c0-.49-.02-.89-.06-1.19-.12-4.09-.19-6.73-.19-7.94s.08-3.84.25-7.77h-1.3c-.04.76-.27,1.36-.68,1.82-.41.45-1.21,1.06-2.41,1.82l-21.13,13.28-10.5-7.21c-1.65-1.1-3.05-2.26-4.2-3.49-1.15-1.23-1.91-2.45-2.29-3.66h-1.24c.12,1.21.19,2.95.19,5.22,0,2.61-.06,4.99-.19,7.15h1.24c.08-1.32.41-2.35.99-3.06.58-.72,1.38-1.08,2.41-1.08,1.61,0,3.69.89,6.24,2.67l6.18,4.2-13.47,8.46c-.45.3-.84.45-1.17.45-.41,0-.71-.28-.9-.85-.19-.57-.28-1.49-.28-2.78h-1.3c.16,2.5.25,5.39.25,8.68,0,1.02-.06,3.35-.19,6.98-.04.3-.06.68-.06,1.14Z"/>
    </g>
  </g>
</svg>