<?xml version="1.0" encoding="UTF-8"?>
<svg id="Layer_2" xmlns="http://www.w3.org/2000/svg" xmlns:xlink="http://www.w3.org/1999/xlink" viewBox="0 0 300.14 273.7">
  <defs>
    <style>
      .cls-1 {
        filter: url(#drop-shadow-1);
      }

      .cls-2 {
        fill: #262d34;
      }

      .cls-3 {
        fill: #fad325;
      }

      .cls-4 {
        fill: #303841;
      }
    </style>
    <filter id="drop-shadow-1" x="85.88" y="28.96" width="134" height="212" filterUnits="userSpaceOnUse">
      <feOffset dx="3" dy="4"/>
      <feGaussianBlur result="blur" stdDeviation="7"/>
      <feFlood flood-color="#303841" flood-opacity=".75"/>
      <feComposite in2="blur" operator="in"/>
      <feComposite in="SourceGraphic"/>
    </filter>
  </defs>
  <g id="Layer_1-2" data-name="Layer_1">
    <g>
      <rect class="cls-2" width="300.14" height="273.7"/>
      <g class="cls-1">
        <path class="cls-4" d="M153.73,138.91c.11-1.73.75-3.42,1.93-4.86l40.07-51.66h-10.56c-1.61,3.67-4.16,7-7.72,9.96-6.51,5.42-15.38,9.36-26.6,11.84v20.82h-2.85v-22.1c7.42-3.23,12.41-7.06,14.97-11.48,1.54-2.66,2.61-5.67,3.23-9.03h-61.81s40.1,51.7,40.1,51.7c1.09,1.34,1.74,2.95,1.89,4.61.99-.18,2.05-.29,3.19-.29,1.52,0,2.9.17,4.16.5Z"/>
        <path class="cls-4" d="M154.33,198.69c-.44-1.4-.65-2.75-.65-4.03v-34.77c-1.25.32-2.62.49-4.11.49-1.11,0-2.15-.1-3.13-.27v34.56c0,1.28-.22,2.62-.65,4.03-2.19,7.16-9.02,12.15-16.63,12.15h-9.27v4.74h60.33s0-4.74,0-4.74h-9.29c-7.59,0-14.42-4.99-16.61-12.15Z"/>
        <path class="cls-3" d="M153.69,159.89c1.84-.47,3.42-1.28,4.73-2.44,2.19-1.95,3.28-4.63,3.28-8.06s-1.09-6.11-3.28-8.06c-1.29-1.15-2.86-1.95-4.68-2.43-.01.16-.04.32-.04.49v20.49Z"/>
        <path class="cls-3" d="M187.22,72.53c0-7.89-3.14-14.14-9.41-18.75-6.27-4.61-14.55-6.92-24.81-6.92-8.65,0-15.78,1.66-21.39,4.99-2.57,1.62-4.56,3.4-5.99,5.35-1.43,1.95-2.14,4.3-2.14,7.06s.95,5.09,2.85,6.99c1.9,1.9,4.32,2.85,7.27,2.85,3.33,0,6.04-.97,8.13-2.92,2.09-1.95,3.14-4.4,3.14-7.34,0-5.32-2.66-8.79-7.99-10.41,1.14-1.23,2.83-2.16,5.06-2.78,2.23-.62,4.68-.93,7.34-.93,5.42,0,9.7,2.09,12.83,6.27,3.14,4.18,4.71,10.6,4.71,19.25,0,2.54-.21,4.92-.62,7.15h18.97c1.34-3.05,2.05-6.33,2.05-9.86Z"/>
        <path class="cls-3" d="M146.39,138.7c-2.25.41-4.14,1.29-5.65,2.64-2.19,1.95-3.28,4.63-3.28,8.06s1.09,6.11,3.28,8.06c1.53,1.36,3.44,2.24,5.72,2.65v-20.7c0-.23-.04-.46-.06-.7Z"/>
      </g>
    </g>
  </g>
</svg>